HIERARCHY
ROOT joint_Root
{
	OFFSET 0.0 0.0 0.0
	CHANNELS 6 Xposition Yposition Zposition Zrotation Xrotation Yrotation 
	JOINT Hips
	{
		OFFSET -0.726466 93.3139 -2.00062
		CHANNELS 6 Xposition Yposition Zposition Zrotation Xrotation Yrotation 
		JOINT Spine
		{
			OFFSET 15.7357 0.0 0.0
			CHANNELS 6 Xposition Yposition Zposition Zrotation Xrotation Yrotation 
			JOINT Chest
			{
				OFFSET 8.98455 -0.406207 0.0
				CHANNELS 6 Xposition Yposition Zposition Zrotation Xrotation Yrotation 
				JOINT Neck
				{
					OFFSET 16.3773 0.0 0.0
					CHANNELS 6 Xposition Yposition Zposition Zrotation Xrotation Yrotation 
					JOINT Head
					{
						OFFSET 6.45672 0.0 0.0
						CHANNELS 6 Xposition Yposition Zposition Zrotation Xrotation Yrotation 
						End Site
						{
							OFFSET 0.0 0.0 0.0
						}
					}
				}
				JOINT Shoulder_L
				{
					OFFSET 12.9942 -0.242716 4.98039
					CHANNELS 6 Xposition Yposition Zposition Zrotation Xrotation Yrotation 
					JOINT UpperArm_L
					{
						OFFSET 5.34809 0.0 0.0
						CHANNELS 6 Xposition Yposition Zposition Zrotation Xrotation Yrotation 
						JOINT LowerArm_L
						{
							OFFSET 24.3286 1.87007e-05 0.0
							CHANNELS 6 Xposition Yposition Zposition Zrotation Xrotation Yrotation 
							JOINT Hand_L
							{
								OFFSET 22.2916 0.0 0.0
								CHANNELS 6 Xposition Yposition Zposition Zrotation Xrotation Yrotation 
								End Site
								{
									OFFSET 0.0 0.0 0.0
								}
							}
						}
					}
				}
				JOINT Shoulder_R
				{
					OFFSET 12.9945 -0.242716 -4.98039
					CHANNELS 6 Xposition Yposition Zposition Zrotation Xrotation Yrotation 
					JOINT UpperArm_R
					{
						OFFSET -5.34813 0.0 0.0
						CHANNELS 6 Xposition Yposition Zposition Zrotation Xrotation Yrotation 
						JOINT LowerArm_R
						{
							OFFSET -24.3289 0.000322201 0.0
							CHANNELS 6 Xposition Yposition Zposition Zrotation Xrotation Yrotation 
							JOINT Hand_R
							{
								OFFSET -22.2915 -0.000108084 0.0
								CHANNELS 6 Xposition Yposition Zposition Zrotation Xrotation Yrotation 
								End Site
								{
									OFFSET 0.0 0.0 0.0
								}
							}
						}
					}
				}
			}
		}
		JOINT UpperLeg_L
		{
			OFFSET -2.19248 -6.46944 0.0
			CHANNELS 6 Xposition Yposition Zposition Zrotation Xrotation Yrotation 
			JOINT LowerLeg_L
			{
				OFFSET 39.0811 0.0 -1.23785e-05
				CHANNELS 6 Xposition Yposition Zposition Zrotation Xrotation Yrotation 
				JOINT Foot_L
				{
					OFFSET 40.9854 0.0 -1.26872e-05
					CHANNELS 6 Xposition Yposition Zposition Zrotation Xrotation Yrotation 
					JOINT Toes_L
					{
						OFFSET 11.7543 0.0 0.0
						CHANNELS 6 Xposition Yposition Zposition Zrotation Xrotation Yrotation 
						End Site
						{
							OFFSET 0.0 0.0 0.0
						}
					}
				}
			}
		}
		JOINT UpperLeg_R
		{
			OFFSET -2.19251 6.46944 0.0
			CHANNELS 6 Xposition Yposition Zposition Zrotation Xrotation Yrotation 
			JOINT LowerLeg_R
			{
				OFFSET -39.0811 -0.00228153 -0.0401928
				CHANNELS 6 Xposition Yposition Zposition Zrotation Xrotation Yrotation 
				JOINT Foot_R
				{
					OFFSET -40.9854 0.0 0.0
					CHANNELS 6 Xposition Yposition Zposition Zrotation Xrotation Yrotation 
					JOINT Toes_R
					{
						OFFSET -11.7543 0.0 0.0
						CHANNELS 6 Xposition Yposition Zposition Zrotation Xrotation Yrotation 
						End Site
						{
							OFFSET 0.0 0.0 0.0
						}
					}
				}
			}
		}
	}
}
MOTION
Frames:	7
Frame Time:	0.0333333
0.000000 0.000000 0.000000 0.000000 0.000000 -0.000000 -0.256680 92.994100 -1.082400 89.073500 -2.563780 1.679550 15.735700 0.000005 -0.000001 93.901900 86.973200 -93.806000 8.984550 -0.406207 -0.000000 -1.726790 0.403898 0.197837 16.377300 -0.000001 -0.000001 2.063930 -3.081570 3.189470 6.456720 -0.000001 -0.000000 7.507600 -2.183570 -3.901330 12.994200 -0.242716 4.980390 -90.579400 1.897650 -73.018400 5.348090 -0.000007 -0.000001 -66.207000 40.859500 -14.171400 24.328600 0.000019 0.000005 5.297740 12.856500 -22.622600 22.291600 -0.000001 0.000005 0.002076 5.478760 -5.699260 12.994500 -0.242716 -4.980390 87.523500 8.224980 -73.178600 -5.348130 -0.000001 -0.000004 -61.876200 41.398100 -14.120200 -24.328900 0.000322 -0.000009 5.052400 13.335100 -20.976100 -22.291500 -0.000108 -0.000004 1.000680 5.310790 -0.225614 -2.192480 -6.469440 -0.000000 -176.973000 -8.365270 -2.696680 39.081100 -0.000007 -0.000012 -0.053938 0.176745 16.970900 40.985400 -0.000006 -0.000013 -0.057849 4.202840 -62.767500 11.754300 -0.000000 0.000003 -0.000001 -0.000022 -16.578400 -2.192510 6.469440 -0.000001 178.931000 11.064100 179.421000 -39.081100 -0.002282 -0.040193 -0.053510 0.225450 14.150800 -40.985400 0.000008 0.000006 0.714973 7.194970 -62.107500 -11.754300 -0.000006 -0.000006 -0.005787 -0.068886 -19.376500
0.000000 0.000000 0.000000 0.000000 0.000000 -0.000000 -0.246658 92.988100 -1.146460 89.117200 -2.616010 1.820050 15.735700 0.000005 -0.000001 93.321300 86.943300 -93.242600 8.984550 -0.406207 -0.000000 -1.663240 0.347615 0.162468 16.377300 -0.000001 -0.000001 2.147730 -3.126690 3.246830 6.456720 -0.000001 -0.000000 7.784620 -2.100310 -4.132890 12.994200 -0.242716 4.980390 -90.649300 2.136430 -73.090200 5.348090 -0.000007 -0.000001 -63.146300 41.477500 -16.455300 24.328600 0.000019 0.000005 7.134160 16.073600 -24.324700 22.291600 -0.000001 0.000005 -4.559110 5.477040 -5.635370 12.994500 -0.242716 -4.980390 87.495100 8.303810 -73.148100 -5.348130 -0.000001 -0.000004 -59.463400 40.514600 -16.472700 -24.328900 0.000322 -0.000009 6.269050 14.756800 -23.332700 -22.291500 -0.000108 -0.000004 -5.467070 5.271510 0.862660 -2.192480 -6.469440 -0.000000 -177.007000 -8.341810 -2.611920 39.081100 -0.000007 -0.000012 -0.054573 0.178343 17.014200 40.985400 -0.000006 -0.000013 -0.068044 4.113780 -62.754200 11.754300 -0.000000 0.000003 -0.000003 -0.000050 -16.579500 -2.192510 6.469440 -0.000001 178.876000 10.984900 179.415000 -39.081100 -0.002282 -0.040193 -0.053266 0.221400 14.339600 -40.985400 0.000008 0.000006 0.725377 7.158330 -62.152900 -11.754300 -0.000006 -0.000006 -0.006089 -0.071638 -19.488700
0.000000 0.000000 0.000000 0.000000 0.000000 -0.000000 -0.256304 92.976100 -1.238450 89.094600 -2.658210 2.046420 15.735700 0.000005 -0.000001 92.694000 86.907300 -92.606800 8.984550 -0.406207 -0.000000 -1.587590 0.283558 0.178315 16.377300 -0.000001 -0.000001 2.489080 -3.045000 3.247970 6.456720 -0.000001 -0.000000 8.027570 -1.989300 -4.270140 12.994200 -0.242716 4.980390 -90.676100 2.224030 -73.085900 5.348090 -0.000007 -0.000001 -59.720200 39.552000 -19.369300 24.328600 0.000019 0.000005 9.088460 18.303200 -26.993000 22.291600 -0.000001 0.000005 -7.140290 5.468160 -5.301850 12.994500 -0.242716 -4.980390 87.501800 8.161100 -72.915600 -5.348130 -0.000001 -0.000004 -56.467800 38.230400 -19.957900 -24.328900 0.000322 -0.000009 7.492390 15.219500 -26.613200 -22.291500 -0.000108 -0.000004 -11.157800 5.217090 2.290210 -2.192480 -6.469440 -0.000000 -176.965000 -8.320120 -2.546230 39.081100 -0.000007 -0.000012 -0.054228 0.175048 17.212200 40.985400 -0.000006 -0.000013 -0.067504 4.044200 -62.788100 11.754300 -0.000000 0.000003 -0.000002 -0.000025 -16.578500 -2.192510 6.469440 -0.000001 178.878000 10.920100 179.485000 -39.081100 -0.002282 -0.040193 -0.054510 0.223217 14.527300 -40.985400 0.000008 0.000006 0.743277 7.124490 -62.182600 -11.754300 -0.000006 -0.000006 -0.005853 -0.069496 -19.401400
0.000000 0.000000 0.000000 0.000000 0.000000 -0.000000 -0.247351 92.969700 -1.359550 89.068800 -2.748630 2.290820 15.735700 0.000005 -0.000001 92.402200 86.898500 -92.292200 8.984550 -0.406207 -0.000000 -1.568670 0.250973 0.223396 16.377300 -0.000001 -0.000001 3.083970 -2.964720 3.242200 6.456720 -0.000001 -0.000000 8.470720 -1.928720 -4.477640 12.994200 -0.242716 4.980390 -90.694900 2.281330 -73.053700 5.348090 -0.000007 -0.000001 -56.657200 34.685900 -22.410300 24.328600 0.000019 0.000005 9.722430 17.232400 -30.043500 22.291600 -0.000001 0.000005 -5.971970 5.459670 -4.986900 12.994500 -0.242716 -4.980390 87.519500 7.981570 -72.672800 -5.348130 -0.000001 -0.000004 -53.115900 34.544000 -24.186500 -24.328900 0.000322 -0.000009 8.753620 14.908200 -30.903900 -22.291500 -0.000108 -0.000004 -12.578800 5.169820 3.465210 -2.192480 -6.469440 -0.000000 -176.901000 -8.474360 -2.449550 39.081100 -0.000007 -0.000012 -0.055314 0.176841 17.369000 40.985400 -0.000006 -0.000013 -0.052319 4.086350 -62.788000 11.754300 -0.000000 0.000003 -0.000001 -0.000010 -16.577900 -2.192510 6.469440 -0.000001 178.871000 10.882400 179.566000 -39.081100 -0.002282 -0.040193 -0.054476 0.220716 14.676400 -40.985400 0.000008 0.000006 0.766988 7.183610 -62.167800 -11.754300 -0.000006 -0.000006 -0.005802 -0.069024 -19.382100
0.000000 0.000000 0.000000 0.000000 0.000000 -0.000000 -0.248497 92.953200 -1.477740 89.070400 -2.878720 2.671580 15.735700 0.000005 -0.000001 92.354000 86.877400 -92.234600 8.984550 -0.406207 -0.000000 -1.526370 0.246775 0.242141 16.377300 -0.000001 -0.000001 3.790390 -2.763140 3.227170 6.456720 -0.000001 -0.000000 9.160500 -1.891690 -4.496580 12.994200 -0.242716 4.980390 -90.688900 2.262410 -73.059500 5.348090 -0.000007 -0.000001 -54.164400 27.841800 -25.705700 24.328600 0.000019 0.000005 9.242990 14.105600 -33.734200 22.291600 -0.000001 0.000005 -3.704820 5.484840 -5.933290 12.994500 -0.242716 -4.980390 87.573600 7.776760 -72.612100 -5.348130 -0.000001 -0.000004 -49.706700 29.849200 -28.959100 -24.328900 0.000322 -0.000009 10.305800 14.566400 -35.869800 -22.291500 -0.000108 -0.000004 -10.000500 5.177950 3.267480 -2.192480 -6.469440 -0.000000 -176.858000 -8.439710 -2.229960 39.081100 -0.000007 -0.000012 -0.056462 0.178278 17.573300 40.985400 -0.000006 -0.000013 -0.068254 3.945740 -62.823700 11.754300 -0.000000 0.000003 -0.000003 -0.000042 -16.579200 -2.192510 6.469440 -0.000001 178.808000 10.870700 179.727000 -39.081100 -0.002282 -0.040193 -0.055517 0.220296 14.956300 -40.985400 0.000008 0.000006 0.808314 7.288110 -62.225800 -11.754300 -0.000006 -0.000006 -0.005556 -0.066751 -19.289400
0.000000 0.000000 0.000000 0.000000 0.000000 -0.000000 -0.262726 92.926400 -1.585190 89.031200 -3.044220 3.074350 15.735700 0.000005 -0.000001 92.980100 86.848600 -92.876500 8.984550 -0.406207 -0.000000 -1.471960 0.319265 0.211163 16.377300 -0.000001 -0.000001 4.469180 -2.620470 3.381040 6.456720 -0.000001 -0.000000 9.989480 -1.830150 -4.455040 12.994200 -0.242716 4.980390 -90.631300 2.084430 -73.146300 5.348090 -0.000007 -0.000001 -51.969800 20.402700 -29.536700 24.328600 0.000019 0.000005 8.994700 11.227300 -39.111100 22.291600 -0.000001 0.000005 -1.674170 5.501710 -6.600830 12.994500 -0.242716 -4.980390 87.616700 7.628390 -72.591900 -5.348130 -0.000001 -0.000004 -46.689300 24.146900 -33.992400 -24.328900 0.000322 -0.000009 12.000500 13.889600 -41.527100 -22.291500 -0.000108 -0.000004 -6.352990 5.181650 3.174900 -2.192480 -6.469440 -0.000000 -176.739000 -8.613650 -2.020950 39.081100 -0.000007 -0.000012 -0.056324 0.174453 17.893100 40.985400 -0.000006 -0.000013 -0.051769 4.023830 -62.934500 11.754300 -0.000000 0.000003 -0.000001 -0.000019 -16.578200 -2.192510 6.469440 -0.000001 178.785000 10.803500 179.897000 -39.081100 -0.002282 -0.040193 -0.058046 0.224680 15.278700 -40.985400 0.000008 0.000006 0.853882 7.389360 -62.313800 -11.754300 -0.000006 -0.000006 -0.005984 -0.070693 -19.450200
0.000000 0.000000 0.000000 0.000000 0.000000 -0.000000 -0.245389 92.915600 -1.671580 89.073200 -3.153100 3.440770 15.735700 0.000005 -0.000001 93.659900 86.843100 -93.578700 8.984550 -0.406207 -0.000000 -1.465390 0.396408 0.167385 16.377300 -0.000001 -0.000001 5.064690 -2.474080 3.529950 6.456720 -0.000001 -0.000000 10.875600 -1.799800 -4.403380 12.994200 -0.242716 4.980390 -90.521000 1.728490 -73.225000 5.348090 -0.000007 -0.000001 -50.300000 13.112900 -33.975300 24.328600 0.000019 0.000005 10.163100 10.143500 -45.506600 22.291600 -0.000001 0.000005 1.218130 5.522030 -7.446460 12.994500 -0.242716 -4.980390 87.739800 7.287720 -72.717100 -5.348130 -0.000001 -0.000004 -44.850900 17.479600 -38.841600 -24.328900 0.000322 -0.000009 14.420000 13.425800 -47.919500 -22.291500 -0.000108 -0.000004 -2.884620 5.177730 3.272110 -2.192480 -6.469440 -0.000000 -176.732000 -8.663280 -1.739820 39.081100 -0.000007 -0.000012 -0.057253 0.176395 17.981900 40.985400 -0.000006 -0.000013 -0.055241 3.956170 -62.931700 11.754300 -0.000000 0.000003 -0.000001 -0.000021 -16.578300 -2.192510 6.469440 -0.000001 178.679000 10.808400 -179.930000 -39.081100 -0.002282 -0.040193 -0.057722 0.219849 15.519900 -40.985400 0.000008 0.000006 0.887548 7.491550 -62.360900 -11.754300 -0.000006 -0.000006 -0.005546 -0.066656 -19.285500
